<?xml version="1.0" encoding="UTF-8" standalone="no"?>
<svg
   xmlns:dc="http://purl.org/dc/elements/1.1/"
   xmlns:cc="http://creativecommons.org/ns#"
   xmlns:rdf="http://www.w3.org/1999/02/22-rdf-syntax-ns#"
   xmlns:svg="http://www.w3.org/2000/svg"
   xmlns="http://www.w3.org/2000/svg"
   xmlns:sodipodi="http://sodipodi.sourceforge.net/DTD/sodipodi-0.dtd"
   xmlns:inkscape="http://www.inkscape.org/namespaces/inkscape"
   width="400"
   height="400"
   viewBox="0 0 105.83334 105.83334"
   version="1.1"
   id="svg8"
   inkscape:version="1.0.2 (e86c870879, 2021-01-15)"
   sodipodi:docname="icon_demo.svg">
  <defs
     id="defs2" />
  <sodipodi:namedview
     id="base"
     pagecolor="#ffffff"
     bordercolor="#666666"
     borderopacity="1.0"
     inkscape:pageopacity="0.0"
     inkscape:pageshadow="2"
     inkscape:zoom="0.7"
     inkscape:cx="-22.326734"
     inkscape:cy="513.32219"
     inkscape:document-units="mm"
     inkscape:current-layer="layer1"
     inkscape:document-rotation="0"
     showgrid="false"
     fit-margin-top="0"
     fit-margin-left="0"
     fit-margin-right="0"
     fit-margin-bottom="0"
     units="px"
     inkscape:window-width="2560"
     inkscape:window-height="1388"
     inkscape:window-x="1920"
     inkscape:window-y="0"
     inkscape:window-maximized="1" />
  <metadata
     id="metadata5">
    <rdf:RDF>
      <cc:Work
         rdf:about="">
        <dc:format>image/svg+xml</dc:format>
        <dc:type
           rdf:resource="http://purl.org/dc/dcmitype/StillImage" />
        <dc:title></dc:title>
      </cc:Work>
    </rdf:RDF>
  </metadata>
  <g
     inkscape:label="Layer 1"
     inkscape:groupmode="layer"
     id="layer1"
     transform="translate(-19.817864,-45.453922)">
    <path
       style="fill:#000055;fill-opacity:1;stroke-width:1"
       d="m 65.902176,127.0135 c -9.713805,-1.22711 -19.592848,-5.19891 -27.260638,-10.95993 -1.375172,-1.03321 -5.782992,-5.04393 -9.795155,-8.91272 -7.727443,-7.45129 -8.520275,-8.661887 -7.310681,-11.162792 1.03304,-2.135856 15.638216,-15.797409 19.77703,-18.499259 6.700861,-4.37437 14.12555,-7.324098 21.919212,-8.70821 4.679847,-0.831121 15.225513,-0.831121 19.90536,0 8.098025,1.438165 16.838051,5.064136 23.303836,9.668069 4.03575,2.873632 17.50917,15.726316 18.39242,17.545034 1.20763,2.486702 0.408,3.722524 -7.0783,10.939508 -8.90373,8.58341 -12.63835,11.41148 -19.324814,14.63389 -10.277297,4.95292 -21.547959,6.8435 -32.52827,5.45641 z m -9.458397,-12.99353 c -3.060385,-3.12762 -4.912655,-6.47383 -6.062711,-10.95254 -1.945332,-7.57579 0.36012,-15.887151 6.021803,-21.709111 1.512496,-1.555313 2.718858,-2.827839 2.680804,-2.827839 -0.03805,0 -1.255288,0.408082 -2.704964,0.906846 -6.873332,2.364763 -12.907321,6.42997 -19.745177,13.302658 l -4.993813,5.019259 5.47931,5.343477 c 5.403642,5.26969 9.239139,8.2251 13.46065,10.37199 2.072094,1.05379 7.705063,3.33719 8.353643,3.38627 0.172478,0.013 -0.947817,-1.2654 -2.489545,-2.84101 z m 36.301706,0.81487 c 5.31222,-2.18456 10.205505,-5.62221 16.258825,-11.4222 2.99614,-2.87075 5.507,-5.343343 5.57969,-5.494655 0.0727,-0.1513 -2.34776,-2.698383 -5.37878,-5.660159 -6.04703,-5.908904 -11.031578,-9.445231 -16.459735,-11.677467 -5.851263,-2.406234 -5.972875,-2.376229 -2.884913,0.711857 9.05487,9.055254 9.05487,23.775504 0,32.830754 -3.087962,3.0881 -2.96635,3.1181 2.884913,0.71187 z m -12.603093,-4.0211 c 3.128196,-1.70258 5.173005,-3.94788 6.767794,-7.43135 1.036874,-2.26484 1.170561,-3.12959 0.979139,-6.333618 -0.488128,-8.170327 -5.888966,-13.580565 -14.027282,-14.051677 -3.216717,-0.186221 -4.089746,-0.0509 -6.352208,0.984935 -5.891605,2.697268 -9.13209,7.567728 -9.13209,13.725562 0,6.070108 3.174526,10.923818 8.949169,13.682878 2.109118,1.00771 3.013045,1.15011 6.349222,1.00023 3.16299,-0.14212 4.37146,-0.43684 6.466256,-1.57696 z"
       id="path871" />
  </g>
</svg>
