<?xml version="1.0" encoding="UTF-8" standalone="no"?>
<svg
   xmlns:dc="http://purl.org/dc/elements/1.1/"
   xmlns:cc="http://creativecommons.org/ns#"
   xmlns:rdf="http://www.w3.org/1999/02/22-rdf-syntax-ns#"
   xmlns:svg="http://www.w3.org/2000/svg"
   xmlns="http://www.w3.org/2000/svg"
   xmlns:sodipodi="http://sodipodi.sourceforge.net/DTD/sodipodi-0.dtd"
   xmlns:inkscape="http://www.inkscape.org/namespaces/inkscape"
   width="400"
   height="400"
   viewBox="0 0 105.83334 105.83334"
   version="1.1"
   id="svg8"
   inkscape:version="1.0.2 (e86c870879, 2021-01-15)"
   sodipodi:docname="icon_tool.svg">
  <defs
     id="defs2" />
  <sodipodi:namedview
     id="base"
     pagecolor="#ffffff"
     bordercolor="#666666"
     borderopacity="1.0"
     inkscape:pageopacity="0.0"
     inkscape:pageshadow="2"
     inkscape:zoom="0.98994949"
     inkscape:cx="19.337595"
     inkscape:cy="284.39552"
     inkscape:document-units="mm"
     inkscape:current-layer="layer1"
     inkscape:document-rotation="0"
     showgrid="false"
     fit-margin-top="0"
     fit-margin-left="0"
     fit-margin-right="0"
     fit-margin-bottom="0"
     units="px"
     inkscape:window-width="2560"
     inkscape:window-height="1388"
     inkscape:window-x="1920"
     inkscape:window-y="0"
     inkscape:window-maximized="1" />
  <metadata
     id="metadata5">
    <rdf:RDF>
      <cc:Work
         rdf:about="">
        <dc:format>image/svg+xml</dc:format>
        <dc:type
           rdf:resource="http://purl.org/dc/dcmitype/StillImage" />
        <dc:title></dc:title>
      </cc:Work>
    </rdf:RDF>
  </metadata>
  <g
     inkscape:label="Layer 1"
     inkscape:groupmode="layer"
     id="layer1"
     transform="translate(-19.817864,-45.453922)">
    <path
       style="fill:none;fill-opacity:1;stroke:#000055;stroke-width:4;stroke-miterlimit:4;stroke-dasharray:none;stroke-opacity:1"
       d="m 35.128278,148.1458 c -2.20781,-0.21791 -4.618332,-1.26649 -6.638641,-2.88781 -1.907531,-1.53085 -3.472453,-3.40744 -4.45057,-5.33693 -0.780135,-1.53894 -1.156752,-2.83384 -1.278608,-4.39612 l -0.03668,-0.46997 10.330082,-10.32542 10.330073,-10.32541 0.779986,-0.11449 c 4.685927,-0.68771 8.994288,-3.53818 10.819843,-7.15853 0.355689,-0.70538 0.596678,-1.38651 0.758627,-2.1442 0.108551,-0.50784 0.14295,-0.75273 0.209821,-1.49371 0.01532,-0.16963 0.05946,-0.36789 0.09805,-0.4406 0.09468,-0.17824 2.346603,-2.45309 2.426405,-2.45112 0.03472,8e-4 1.173466,0.69996 2.530563,1.55355 l 2.467465,1.55195 18.171819,-18.167894 18.171817,-18.167899 0.51662,-2.081831 c 0.28413,-1.145012 0.5734,-2.266892 0.64282,-2.493065 0.14463,-0.471214 -0.17411,-0.203285 2.62255,-2.204461 2.05706,-1.471956 9.84648,-6.936674 9.9371,-6.971449 0.10444,-0.04006 3.79427,3.626037 3.7636,3.739382 -0.0203,0.07509 -1.36894,2.017343 -5.38618,7.75703 -1.34978,1.928504 -3.23814,4.572107 -3.30361,4.624836 -0.10248,0.08258 -0.85663,0.306662 -2.13221,0.633567 -2.01081,0.515317 -2.64443,0.686609 -2.81996,0.76233 -0.15131,0.06528 -36.337457,36.192374 -36.380324,36.320974 -0.0085,0.0256 0.685677,1.16919 1.542825,2.54093 l 1.558449,2.49408 -1.224738,1.22469 -1.224739,1.2247 -0.641695,0.0547 c -1.400584,0.1193 -2.347901,0.37932 -3.520401,0.96631 -2.610892,1.30706 -4.877665,3.96834 -6.196467,7.27486 -0.461435,1.15692 -0.89501,2.77815 -0.974119,3.64243 -0.02789,0.30433 -0.07983,0.48359 -0.189663,0.65415 -0.173325,0.26914 -2.317273,2.438 -12.904132,13.05409 l -7.574584,7.5955 -0.297789,-0.01 c -0.163787,-0.006 -0.390323,-0.0184 -0.503421,-0.0297 z m 76.990662,-2.46768 c -5.03105,-0.16872 -7.70007,-0.47523 -10.66296,-1.22455 -2.41711,-0.61129 -4.713098,-1.64771 -6.286142,-2.83764 -0.552384,-0.41784 -1.542826,-1.37078 -2.026034,-1.94934 -1.489907,-1.78386 -2.42947,-3.99843 -2.903647,-6.844 -0.231916,-1.39176 -0.308605,-2.32482 -0.449017,-5.46346 -0.04202,-0.94013 -0.128039,-1.30233 -0.47233,-1.98963 -0.916744,-1.83004 -3.352474,-4.90419 -7.083865,-8.94058 -1.572792,-1.70133 -2.723668,-2.88204 -6.620929,-6.79252 l -3.377037,-3.38851 4.645553,-4.6892 c 1.839223,-1.739502 3.682408,-3.645582 5.387423,-5.350537 0.118936,-0.118931 2.530275,2.450045 2.984201,2.900395 4.855334,4.817122 7.413797,7.228882 9.651308,9.097902 1.675986,1.39997 3.375076,2.58667 4.464926,3.11847 0.78103,0.3811 1.22328,0.47296 2.49684,0.51865 6.84076,0.24544 11.64549,2.0822 15.451,5.90667 1.71971,1.72825 3.0817,3.73045 4.3076,6.3324 0.59007,1.25241 1.33232,3.15579 1.33232,3.41652 0,0.088 -0.49908,1.10362 -0.59248,1.20571 -0.0291,0.0317 -0.0795,0.0285 -0.1247,-0.008 -0.0752,-0.0608 -2.41443,-1.40308 -9.3995,-5.39378 l -3.62491,-2.07099 -0.69315,0.42082 c -4.15702,2.52376 -6.73591,6.55895 -7.30751,11.43402 -0.0397,0.33927 -0.0747,1.06233 -0.0777,1.60678 l -0.006,0.98995 5.69866,3.25872 c 3.13427,1.7923 6.0754,3.47332 6.53584,3.73561 0.46045,0.26229 0.83716,0.50231 0.83716,0.53337 0,0.031 -0.28337,0.60767 -0.62975,1.28133 -0.61866,1.20324 -0.63289,1.22461 -0.8078,1.213 -0.0979,-0.007 -0.38955,-0.0189 -0.64803,-0.0276 z M 61.840264,95.856105 C 58.034351,92.089561 56.037395,90.235302 53.560043,88.167587 51.290017,86.272913 49.690219,85.158793 48.47164,84.623977 47.879015,84.36388 47.689572,84.334503 45.991317,84.239349 43.248491,84.085675 41.732979,83.878275 39.955851,83.413416 36.423988,82.489542 33.663306,80.985421 31.17289,78.628121 28.951875,76.525827 26.858222,73.093061 25.525617,69.368816 l -0.275826,-0.770854 0.304813,-0.609702 c 0.167652,-0.335333 0.312092,-0.617809 0.320976,-0.627715 0.0088,-0.0099 0.184306,0.08428 0.389812,0.209325 0.205508,0.125042 1.708718,0.989714 3.340479,1.921506 1.631753,0.931791 4.415701,2.522896 6.186546,3.535782 1.770845,1.012894 3.231951,1.841629 3.246901,1.841629 0.04808,0 1.274861,-0.778958 1.699504,-1.079132 1.633245,-1.15454 3.191757,-2.820378 4.18428,-4.472454 1.383451,-2.302773 2.15101,-5.094951 2.196311,-7.989572 l 0.01383,-0.881206 -3.079696,-1.765564 C 41.226599,57.060197 36.471255,54.338995 34.73583,53.348888 l -0.715606,-0.40828 0.62748,-1.262788 0.627486,-1.262796 1.468726,0.03849 c 4.074874,0.10684 7.033136,0.454091 9.869847,1.15853 6.753894,1.677204 10.326092,5.325162 11.395399,11.637076 0.207816,1.226695 0.313044,2.341418 0.414784,4.393778 0.04885,0.98548 0.112769,1.911107 0.142045,2.056955 0.09475,0.472038 0.287695,0.901023 0.754135,1.676677 1.784159,2.96691 5.774558,7.527494 12.567098,14.362811 l 2.892169,2.910379 -5.006214,5.005766 c -2.753415,2.753171 -5.026949,5.005772 -5.052306,5.005772 -0.02538,0 -1.321608,-1.26233 -2.880575,-2.805175 z"
       id="path1014"
       sodipodi:nodetypes="ccsccccsssscccccccssscscsssscccccscsscccccsssscsssccsssscsssccscscccssssccccssscsscccsscscsccsccccccssssscsscc" />
  </g>
</svg>
