<?xml version="1.0" encoding="UTF-8" standalone="no"?>
<svg
   xmlns:dc="http://purl.org/dc/elements/1.1/"
   xmlns:cc="http://creativecommons.org/ns#"
   xmlns:rdf="http://www.w3.org/1999/02/22-rdf-syntax-ns#"
   xmlns:svg="http://www.w3.org/2000/svg"
   xmlns="http://www.w3.org/2000/svg"
   xmlns:sodipodi="http://sodipodi.sourceforge.net/DTD/sodipodi-0.dtd"
   xmlns:inkscape="http://www.inkscape.org/namespaces/inkscape"
   width="400"
   height="400"
   viewBox="0 0 105.83334 105.83334"
   version="1.1"
   id="svg8"
   inkscape:version="1.0.2 (e86c870879, 2021-01-15)"
   sodipodi:docname="icon_role.svg">
  <defs
     id="defs2" />
  <sodipodi:namedview
     id="base"
     pagecolor="#ffffff"
     bordercolor="#666666"
     borderopacity="1.0"
     inkscape:pageopacity="0.0"
     inkscape:pageshadow="2"
     inkscape:zoom="0.7"
     inkscape:cx="-22.326734"
     inkscape:cy="513.32219"
     inkscape:document-units="mm"
     inkscape:current-layer="layer1"
     inkscape:document-rotation="0"
     showgrid="false"
     fit-margin-top="0"
     fit-margin-left="0"
     fit-margin-right="0"
     fit-margin-bottom="0"
     units="px"
     inkscape:window-width="2560"
     inkscape:window-height="1388"
     inkscape:window-x="1920"
     inkscape:window-y="0"
     inkscape:window-maximized="1" />
  <metadata
     id="metadata5">
    <rdf:RDF>
      <cc:Work
         rdf:about="">
        <dc:format>image/svg+xml</dc:format>
        <dc:type
           rdf:resource="http://purl.org/dc/dcmitype/StillImage" />
        <dc:title />
      </cc:Work>
    </rdf:RDF>
  </metadata>
  <g
     inkscape:label="Layer 1"
     inkscape:groupmode="layer"
     id="layer1"
     transform="translate(-19.817864,-45.453922)">
    <path
       style="fill:none;fill-opacity:1;stroke:#000055;stroke-width:4;stroke-miterlimit:4;stroke-dasharray:none;stroke-opacity:1"
       d="m 23.265222,134.5319 -0.03355,-13.91897 c -0.03425,-14.20882 0.02657,-14.6545 0.981552,-16.43913 1.282704,-2.39715 3.106101,-3.88781 6.146856,-5.025161 2.301687,-0.860897 3.392136,-0.924104 15.943181,-0.924104 14.800285,0 16.401025,0.212854 19.729918,2.623555 1.084581,0.78542 2.255342,2.22675 2.964765,3.64992 0,0 1.106517,1.47848 1.172393,2.35196 0.418359,5.54723 -0.01938,13.60437 0,13.95737 l -0.252459,13.69549 c -5.317871,0.19728 -1.951163,0.0568 -7.664754,0.17713 l -0.09129,-11.84227 -0.222456,-12.38177 h -1.334744 -1.334748 l -0.118383,12.12019 -0.118383,12.12018 H 46.589766 34.146409 l -0.118383,-12.12018 -0.118382,-12.12019 -1.203554,-0.13885 -1.203568,-0.13887 -0.131163,12.52051 -0.130087,11.94185 c -4.534583,-0.0675 -2.716031,-0.0106 -7.97605,-0.10866 z m 52.623958,0.3279 0.07516,-14.04265 c 0.01177,-16.24746 0.05617,-16.5033 3.453498,-19.56533 3.097172,-2.791511 4.651972,-3.027345 19.95887,-3.027345 12.602102,0 13.634032,0.06035 15.972702,0.935148 2.99075,1.118637 5.24293,2.994737 6.56894,5.472017 0.94521,1.76581 1.17452,2.2577 0.97486,16.11808 -0.14631,10.15681 -0.28613,14.12708 -0.28613,14.12708 0,0 -5.65399,-0.0867 -7.86245,-0.0608 -0.0545,-2.09511 -0.0823,-4.02219 -0.0823,-12.77375 v -11.8087 h -1.33475 -1.33475 v 12.23134 12.23138 H 99.261383 86.529974 l 0.16244,-12.12018 0.16244,-12.12019 h -1.334748 -1.33475 l -0.222455,12.60489 c -0.222153,12.58751 -0.162872,9.75087 -0.248135,11.81711 -4.211272,0.006 -4.887729,-0.018 -7.825586,-0.018 z m -3.385024,-25.55636 c -0.18064,-4.29429 -0.752235,-6.77001 -3.509982,-9.311214 -3.091421,-2.84869 -7.81745,-4.436402 -13.205513,-4.436402 h -2.2055 l 2.083367,-1.833285 c 1.145841,-1.008293 2.502013,-2.653636 3.013698,-3.656331 1.246922,-2.443404 1.544527,-6.61743 0.653847,-9.170674 -0.380675,-1.09127 -0.584532,-2.092015 -0.452982,-2.223893 0.1315,-0.131794 6.317941,-0.300538 13.747569,-0.37484 14.168465,-0.141713 15.903753,0.160372 15.368895,1.553843 -0.147138,0.383498 -0.484159,1.556802 -0.748754,2.607307 -0.969663,3.849667 1.152197,9.287037 4.597875,11.782283 l 1.816688,1.31559 -2.847492,0.0033 c -6.882578,0.0084 -10.716603,2.059584 -13.634597,4.766956 -1.742454,1.98322 -3.689784,4.68246 -3.689784,9.36176 0,2.05125 -0.172915,3.72952 -0.384289,3.72952 -0.211357,0 -0.48273,-1.85137 -0.603046,-4.11418 z M 44.026561,94.07255 c -5.722849,-2.074868 -8.316155,-9.069728 -5.281654,-14.246096 4.639056,-7.913485 16.65489,-5.699359 18.314518,3.374772 1.278518,6.990354 -6.30035,13.312237 -13.032864,10.871324 z m 52.787613,0.0033 c -2.658618,-0.989566 -4.258904,-2.404453 -5.472025,-4.838123 -3.369705,-6.75985 1.164995,-14.231321 8.637582,-14.231321 4.213589,0 8.078599,2.707514 9.346199,6.547214 0.8453,2.560472 0.37999,6.485199 -1.01953,8.59937 -2.35614,3.559217 -7.63146,5.360023 -11.492226,3.923012 z M 71.282628,74.202725 c -2.012608,-0.625687 -4.685167,-3.045959 -5.60914,-5.079641 -1.063546,-2.340911 -1.069129,-6.16064 -0.01177,-8.486051 0.988412,-2.175075 3.421986,-4.385452 5.630514,-5.114085 2.688567,-0.887039 6.578819,-0.379195 8.780402,1.146206 2.421129,1.677501 4.335634,5.297134 4.335634,8.197077 0,3.146588 -1.915682,6.565487 -4.594848,8.200324 -2.337556,1.426403 -6.019209,1.916764 -8.530185,1.13617 z"
       id="path980"
       sodipodi:nodetypes="csccsssscccccccccccccccccccccscssccscccccccccccsccccscscsccccscccssccccscccssccccccccscccc" />
  </g>
</svg>
