<?xml version="1.0" encoding="UTF-8" standalone="no"?>
<svg
   xmlns:dc="http://purl.org/dc/elements/1.1/"
   xmlns:cc="http://creativecommons.org/ns#"
   xmlns:rdf="http://www.w3.org/1999/02/22-rdf-syntax-ns#"
   xmlns:svg="http://www.w3.org/2000/svg"
   xmlns="http://www.w3.org/2000/svg"
   xmlns:sodipodi="http://sodipodi.sourceforge.net/DTD/sodipodi-0.dtd"
   xmlns:inkscape="http://www.inkscape.org/namespaces/inkscape"
   width="400"
   height="400"
   viewBox="0 0 105.83334 105.83334"
   version="1.1"
   id="svg8"
   inkscape:version="1.0.2 (e86c870879, 2021-01-15)"
   sodipodi:docname="icon_problem.svg">
  <defs
     id="defs2" />
  <sodipodi:namedview
     id="base"
     pagecolor="#ffffff"
     bordercolor="#666666"
     borderopacity="1.0"
     inkscape:pageopacity="0.0"
     inkscape:pageshadow="2"
     inkscape:zoom="0.98994949"
     inkscape:cx="642.23386"
     inkscape:cy="474.24561"
     inkscape:document-units="mm"
     inkscape:current-layer="layer1"
     inkscape:document-rotation="0"
     showgrid="false"
     fit-margin-top="0"
     fit-margin-left="0"
     fit-margin-right="0"
     fit-margin-bottom="0"
     units="px"
     inkscape:window-width="2560"
     inkscape:window-height="1388"
     inkscape:window-x="1920"
     inkscape:window-y="0"
     inkscape:window-maximized="1" />
  <metadata
     id="metadata5">
    <rdf:RDF>
      <cc:Work
         rdf:about="">
        <dc:format>image/svg+xml</dc:format>
        <dc:type
           rdf:resource="http://purl.org/dc/dcmitype/StillImage" />
        <dc:title></dc:title>
      </cc:Work>
    </rdf:RDF>
  </metadata>
  <g
     inkscape:label="Layer 1"
     inkscape:groupmode="layer"
     id="layer1"
     transform="translate(-19.817864,-45.453922)">
    <path
       style="fill:#000055;fill-opacity:1;stroke-width:1"
       d="m 26.746464,150.87257 c -1.587743,-0.38513 -2.753311,-1.08587 -4.18808,-2.51787 -2.865549,-2.86002 -3.454831,-5.95402 -1.904114,-9.99746 0.931491,-2.42883 1.560988,-3.13193 13.75843,-15.36706 8.988072,-9.01584 11.572691,-11.70046 11.658011,-12.10904 0.09058,-0.43374 -0.06387,-0.85674 -0.888836,-2.43433 C 40.481001,99.45728 38.926473,91.001829 40.278177,81.774401 42.577005,66.081417 53.72904,52.75932 68.808249,47.692671 c 4.856122,-1.631665 8.617112,-2.238748 13.869487,-2.238748 2.973403,0 4.168064,0.0727 6.127805,0.372879 9.582376,1.467799 17.565039,5.477454 24.260919,12.186155 3.14688,3.152898 5.98744,7.079417 7.99351,11.049445 1.8469,3.65502 3.29044,8.333706 4.02572,13.047765 0.54137,3.47089 0.54145,8.78364 1.6e-4,12.25561 -1.51111,9.693243 -5.55394,17.736133 -12.20961,24.290073 -6.71251,6.60993 -14.744843,10.66474 -23.734952,11.98168 -9.217746,1.35029 -17.684688,-0.2038 -26.648734,-4.8913 -1.55853,-0.81499 -1.980871,-0.96842 -2.434335,-0.88432 -0.44828,0.0831 -2.667841,2.21357 -12.132722,11.64561 -9.723643,9.6899 -11.814152,11.69308 -13.016673,12.4729 -2.841631,1.84278 -5.666384,2.49759 -8.162389,1.89215 z M 86.79092,119.6396 c 12.987707,-1.75468 23.44006,-11.05884 26.60105,-23.678916 2.29899,-9.178582 0.29964,-19.180472 -5.336,-26.693729 -1.29471,-1.726071 -4.68115,-5.112506 -6.40722,-6.407219 -5.403464,-4.053101 -12.107387,-6.268105 -18.971014,-6.268105 -17.549074,0 -31.63978,14.093623 -31.63978,31.646341 0,15.914688 11.565424,29.183858 27.358713,31.389038 2.141336,0.299 6.228961,0.30512 8.394251,0.0126 z m -6.799344,-8.99763 c -0.647527,-0.21016 -1.144755,-0.63492 -1.5811,-1.35066 -0.314814,-0.51639 -0.348386,-0.83464 -0.348951,-3.30783 -6.35e-4,-3.11584 0.08692,-3.42358 1.205778,-4.23408 l 0.690707,-0.50034 h 2.761516 c 3.179053,0 3.653279,0.13321 4.38018,1.23038 0.428844,0.6473 0.448832,0.77983 0.500006,3.31593 0.06085,3.01386 -0.100026,3.58613 -1.255759,4.46779 -0.610332,0.46559 -0.650218,0.47185 -3.233337,0.50684 -1.438465,0.0195 -2.842031,-0.0381 -3.11904,-0.12803 z m 0.116741,-13.07063 c -1.701559,-0.592723 -2.21852,-1.429892 -2.209409,-3.577916 0.01447,-3.412185 1.286782,-6.276874 4.462967,-10.04867 2.540174,-3.016526 3.22531,-3.917912 3.591908,-4.72562 1.251635,-2.757664 -1.207891,-5.327756 -4.283358,-4.475923 -0.369345,0.102298 -0.888038,0.339897 -1.152655,0.527983 -0.609266,0.433083 -1.276781,1.850444 -1.283723,2.725786 -0.01218,1.533821 -1.029291,2.695553 -2.728736,3.116688 -1.188874,0.294611 -4.576471,0.134615 -5.327706,-0.251634 -1.486362,-0.764204 -1.888957,-1.504509 -1.86994,-3.438489 0.0486,-4.941564 3.115262,-9.533367 7.800541,-11.679982 4.105766,-1.881098 9.463682,-1.493466 13.202235,0.955165 3.981564,2.607789 6.299235,7.176793 5.986629,11.801907 -0.136544,2.020189 -0.489949,3.419891 -1.272162,5.038498 -0.824916,1.706964 -1.518288,2.714434 -3.522757,5.118552 -2.579534,3.093837 -3.102428,3.926304 -3.699809,5.890264 -0.441954,1.452983 -1.118835,2.36186 -2.129559,2.859449 -1.113854,0.548358 -4.199892,0.639285 -5.564466,0.163942 z"
       id="path847" />
  </g>
</svg>
